M48
INCH
T13C0.125
T12C0.012
T11C0.039
%
T12
G05
X012600Y039000
X015600Y043000
X019100Y042000
X018600Y040000
X022190Y040010
X024200Y038500
X026700Y041300
X029700Y040600
X034800Y041400
X034400Y039800
X033000Y036200
X030200Y038000
X036800Y039000
X030600Y029500
X032300Y032800
X029900Y029000
X032100Y031200
X036300Y033400
X035300Y028500
X027700Y029500
X028300Y029000
X037300Y030100
X037900Y029100
X036300Y028600
X036900Y030800
X036900Y023500
X037300Y018500
X037800Y019000
X038400Y021500
X040400Y019500
X042700Y020000
X040400Y019500
X035800Y024000
X033100Y011900
X034800Y018000
X036300Y015100
X032300Y024500
X028700Y025800
X031300Y025800
X029300Y021500
X027700Y018500
X032800Y024000
X028800Y019000
X032300Y017000
X039900Y024500
X038400Y027900
X039900Y026900
X018600Y043500
X018200Y034000
X019200Y027400
X019700Y034500
X019700Y026500
X018600Y025500
X021200Y025500
X019600Y025000
X022200Y025000
X020900Y024500
X021700Y023900
X023200Y024500
X024200Y023500
X027700Y042600
X027700Y045800
X025700Y029000
X024700Y028500
X017600Y036400
X020100Y035500
X024200Y035500
X013600Y036000
X012700Y030000
X012200Y029000
X016100Y029000
X015600Y028600
X013100Y027000
X017300Y027000
X014100Y026500
X017600Y026000
X009600Y023800
X025600Y023900
X010600Y023000
X011600Y022000
X012600Y021400
X013600Y022500
X013100Y012500
X018200Y012000
X019200Y011500
X020700Y011000
X023700Y010500
X023200Y011500
X020700Y014900
X022700Y013000
X024800Y009500
X021700Y009900
X025800Y009500
X025700Y019500
X025700Y018000
X025700Y019500
T11
X010100Y040000
X010100Y042000
X010100Y045000
X011100Y040000
X012100Y040000
X011100Y042000
X012100Y042000
X011100Y045000
X012100Y045000
X008600Y042000
X008600Y040000
X008600Y045000
X016100Y042000
X013100Y040000
X013100Y042000
X013100Y045000
X014100Y040000
X014100Y042000
X014100Y045000
X015100Y040000
X015100Y042000
X015100Y045000
X016100Y040000
X016100Y045000
X022200Y042000
X023200Y042000
X024200Y042000
X022200Y040000
X023200Y040000
X024200Y040000
X021000Y042000
X021000Y045000
X021000Y040000
X027200Y042000
X028200Y042000
X033800Y044600
X029200Y042000
X030200Y042000
X031200Y042000
X027200Y040000
X028200Y040000
X033800Y040600
X036100Y041400
X036100Y040600
X036100Y039800
X033800Y037500
X030200Y034500
X030200Y033500
X033800Y033500
X035300Y033500
X035300Y037500
X035300Y030000
X033813Y030006
X027200Y037000
X027200Y034500
X027200Y033500
X028200Y037000
X028200Y034500
X028200Y033500
X029200Y034500
X029200Y033500
X027200Y030500
X028200Y030500
X029200Y030500
X027200Y027500
X028200Y027500
X029200Y027500
X041600Y023200
X041600Y022120
X041600Y021040
X042720Y022660
X042720Y021580
X035300Y026000
X033813Y026006
X029200Y024500
X028200Y020500
X030200Y020500
X031200Y020500
X029200Y020500
X031200Y014000
X031200Y017000
X028200Y024500
X027200Y017000
X028200Y017000
X029200Y017000
X027200Y020500
X027200Y024500
X027200Y014000
X028200Y014000
X029200Y014000
X030200Y024500
X030200Y014000
X030200Y017000
X031200Y024500
X041600Y034000
X041600Y032920
X042720Y033460
X041600Y031840
X041600Y030760
X042720Y032380
X042720Y031300
X042720Y030220
X041600Y029680
X042720Y029140
X041600Y028600
X042720Y028060
X041600Y027520
X042720Y026980
X042720Y025900
X042720Y024820
X042720Y023740
X041600Y026440
X041600Y025360
X041600Y024280
X021000Y027500
X022200Y045000
X022200Y037000
X022200Y027500
X022200Y030500
X021000Y030500
X021000Y037000
X023200Y045000
X023200Y037000
X023200Y034500
X023200Y033500
X023200Y027500
X023200Y030500
X024200Y045000
X024200Y037000
X024200Y030500
X024200Y034500
X024200Y033500
X024200Y027500
X024200Y024500
X025200Y042000
X025200Y045000
X026200Y045000
X027200Y045000
X026200Y042000
X025200Y040000
X026200Y040000
X025200Y037000
X026200Y037000
X025200Y034500
X025200Y033500
X026200Y034500
X026200Y033500
X025200Y030500
X026200Y030500
X028200Y045000
X029200Y045000
X030200Y045000
X031200Y045000
X025200Y027500
X025200Y017000
X025200Y020500
X025200Y024500
X025200Y014000
X026200Y027500
X026200Y024500
X026200Y014000
X026200Y017000
X026200Y020500
X010100Y037000
X011100Y037000
X012100Y037000
X013100Y037000
X014100Y037000
X015100Y037000
X016100Y037000
X008600Y037000
X010100Y035500
X011100Y035500
X012100Y035500
X013100Y035500
X010100Y032500
X012100Y032500
X013100Y032500
X014100Y032500
X014100Y035500
X008600Y032500
X008600Y035500
X011100Y032500
X010100Y031000
X011100Y031000
X012100Y031000
X010100Y028000
X011100Y028000
X008600Y028000
X012100Y028000
X013100Y028000
X013100Y031000
X014100Y031000
X008600Y031000
X014100Y028000
X015100Y032500
X015100Y035500
X016100Y035500
X016100Y032500
X015100Y031000
X016100Y031000
X015100Y028000
X016100Y028000
X009600Y014000
X009600Y017000
X010600Y020500
X008600Y014000
X010600Y014000
X007600Y014000
X008600Y017000
X010600Y017000
X007600Y017000
X010600Y024500
X011600Y024500
X012600Y024500
X013600Y024500
X011600Y020500
X014600Y024500
X015600Y024500
X016600Y024500
X017600Y024500
X013600Y020500
X014600Y020500
X015600Y020500
X016600Y020500
X017600Y020500
X013600Y014000
X013600Y017000
X014600Y017000
X014600Y014000
X015600Y014000
X016600Y014000
X017600Y014000
X015600Y017000
X016600Y017000
X017600Y017000
X012600Y020500
X011600Y014000
X011600Y017000
X012600Y014000
X012600Y017000
X022200Y017000
X023200Y017000
X022200Y014000
X023200Y014000
X024200Y014000
X024200Y017000
X020700Y014000
X020700Y017000
X024200Y020500
T13
X042160Y018340
X042160Y036700
M30
