G04 start of page 2 for group 2 layer_idx 8 *
G04 Title: (unknown), top_mask *
G04 Creator: pcb-rnd 3.1.1-dev *
G04 CreationDate: 2023-05-01 13:13:09 UTC *
G04 For:  *
G04 Format: Gerber/RS-274X *
G04 PCB-Dimensions: 500000 500000 *
G04 PCB-Coordinate-Origin: lower left *
%MOIN*%
%FSLAX25Y25*%
%LNTOP_MASK_NONE_2*%
%ADD21C,0.1559*%
%ADD20C,0.0001*%
%ADD19C,0.0669*%
G54D19*X101000Y400000D03*
G54D20*G36*
X97654Y416654D02*Y423346D01*
X104346D01*
Y416654D01*
X97654D01*
G37*
G54D19*X101000Y450000D03*
X111000Y400000D03*
X121000D03*
X111000Y420000D03*
X121000D03*
X111000Y450000D03*
X121000D03*
X86000Y420000D03*
Y400000D03*
Y450000D03*
X161000Y420000D03*
X131000Y400000D03*
Y420000D03*
Y450000D03*
X141000Y400000D03*
Y420000D03*
Y450000D03*
X151000Y400000D03*
Y420000D03*
Y450000D03*
X161000Y400000D03*
Y450000D03*
G54D20*G36*
X218654Y416654D02*Y423346D01*
X225346D01*
Y416654D01*
X218654D01*
G37*
G54D19*X232000Y420000D03*
X242000D03*
X222000Y400000D03*
X232000D03*
X242000D03*
X210000Y420000D03*
Y450000D03*
Y400000D03*
X272000Y420000D03*
X282000D03*
X338000Y446000D03*
X292000Y420000D03*
X302000D03*
X312000D03*
X272000Y400000D03*
X282000D03*
X338000Y406000D03*
X361000Y414000D03*
Y406000D03*
Y398000D03*
X338000Y375000D03*
X302000Y345000D03*
Y335000D03*
X338000D03*
X353000D03*
Y375000D03*
Y300000D03*
X338134Y300063D03*
X272000Y370000D03*
Y345000D03*
Y335000D03*
X282000Y370000D03*
Y345000D03*
Y335000D03*
X292000Y345000D03*
Y335000D03*
X272000Y305000D03*
X282000D03*
X292000D03*
X272000Y275000D03*
X282000D03*
X292000D03*
G54D21*X421600Y183400D03*
G54D19*X416000Y232000D03*
Y221200D03*
Y210400D03*
X427200Y226600D03*
Y215800D03*
X353000Y260000D03*
X338134Y260063D03*
X292000Y245000D03*
X282000Y205000D03*
X302000D03*
X312000D03*
X292000D03*
X312000Y140000D03*
Y170000D03*
X282000Y245000D03*
X272000Y170000D03*
X282000D03*
X292000D03*
X272000Y205000D03*
Y245000D03*
Y140000D03*
X282000D03*
X292000D03*
X302000Y245000D03*
Y140000D03*
Y170000D03*
X312000Y245000D03*
G54D20*G36*
X419346Y336654D02*X412654D01*
Y343346D01*
X419346D01*
Y336654D01*
G37*
G54D19*X416000Y329200D03*
X427200Y334600D03*
X416000Y318400D03*
Y307600D03*
X427200Y323800D03*
Y313000D03*
Y302200D03*
G54D21*X421600Y367000D03*
G54D19*X416000Y296800D03*
X427200Y291400D03*
X416000Y286000D03*
X427200Y280600D03*
X416000Y275200D03*
X427200Y269800D03*
Y259000D03*
Y248200D03*
Y237400D03*
X416000Y264400D03*
Y253600D03*
Y242800D03*
X210000Y275000D03*
X222000Y450000D03*
G54D20*G36*
X218654Y366654D02*Y373346D01*
X225346D01*
Y366654D01*
X218654D01*
G37*
G36*
Y271654D02*Y278346D01*
X225346D01*
Y271654D01*
X218654D01*
G37*
G54D19*X222000Y305000D03*
X210000D03*
Y370000D03*
X232000Y450000D03*
Y370000D03*
G54D20*G36*
X228654Y348346D02*X235346D01*
Y341654D01*
X228654D01*
Y348346D01*
G37*
G54D19*X232000Y335000D03*
Y275000D03*
Y305000D03*
X242000Y450000D03*
Y370000D03*
Y305000D03*
Y345000D03*
Y335000D03*
Y275000D03*
Y245000D03*
X252000Y420000D03*
Y450000D03*
X262000D03*
X272000D03*
X262000Y420000D03*
X252000Y400000D03*
X262000D03*
X252000Y370000D03*
X262000D03*
X252000Y345000D03*
Y335000D03*
X262000Y345000D03*
Y335000D03*
X252000Y305000D03*
X262000D03*
X282000Y450000D03*
X292000D03*
X302000D03*
X312000D03*
X252000Y275000D03*
Y170000D03*
Y205000D03*
Y245000D03*
Y140000D03*
X262000Y275000D03*
Y245000D03*
Y140000D03*
Y170000D03*
Y205000D03*
G54D20*G36*
X97654Y366654D02*Y373346D01*
X104346D01*
Y366654D01*
X97654D01*
G37*
G54D19*X111000Y370000D03*
X121000D03*
X131000D03*
X141000D03*
X151000D03*
X161000D03*
X86000D03*
X101000Y355000D03*
X111000D03*
X121000D03*
X131000D03*
G54D20*G36*
X97654Y321654D02*Y328346D01*
X104346D01*
Y321654D01*
X97654D01*
G37*
G54D19*X121000Y325000D03*
X131000D03*
X141000D03*
Y355000D03*
X86000Y325000D03*
Y355000D03*
X111000Y325000D03*
X101000Y310000D03*
X111000D03*
X121000D03*
G54D20*G36*
X97654Y276654D02*Y283346D01*
X104346D01*
Y276654D01*
X97654D01*
G37*
G54D19*X111000Y280000D03*
X86000D03*
X121000D03*
X131000D03*
Y310000D03*
X141000D03*
X86000D03*
X141000Y280000D03*
X151000Y325000D03*
Y355000D03*
X161000D03*
Y325000D03*
X151000Y310000D03*
X161000D03*
X151000Y280000D03*
X161000D03*
X96000Y140000D03*
Y170000D03*
X106000Y205000D03*
G54D20*G36*
X82654Y136654D02*Y143346D01*
X89346D01*
Y136654D01*
X82654D01*
G37*
G54D19*X106000Y140000D03*
X76000D03*
X86000Y170000D03*
X106000D03*
X76000D03*
X106000Y245000D03*
X116000D03*
X126000D03*
X136000D03*
X116000Y205000D03*
X146000Y245000D03*
X156000D03*
X166000D03*
X176000D03*
X136000Y205000D03*
X146000D03*
X156000D03*
X166000D03*
X176000D03*
X136000Y140000D03*
Y170000D03*
X146000D03*
Y140000D03*
X156000D03*
X166000D03*
X176000D03*
X156000Y170000D03*
X166000D03*
X176000D03*
X126000Y205000D03*
X116000Y140000D03*
Y170000D03*
X126000Y140000D03*
Y170000D03*
X222000D03*
X232000D03*
G54D20*G36*
X218654Y136654D02*Y143346D01*
X225346D01*
Y136654D01*
X218654D01*
G37*
G54D19*X232000Y140000D03*
X242000D03*
Y170000D03*
X207000Y140000D03*
Y170000D03*
X242000Y205000D03*
G54D20*G36*
X370000Y87500D02*Y55000D01*
X47500D01*
Y87500D01*
X370000D01*
G37*
M02*
